<svg id="visual" viewBox="0 0 900 600" width="900" height="600" xmlns="http://www.w3.org/2000/svg" xmlns:xlink="http://www.w3.org/1999/xlink" version="1.1"><path d="M0 419L21.5 425.5C43 432 86 445 128.8 445.8C171.7 446.7 214.3 435.3 257.2 433.8C300 432.3 343 440.7 385.8 438.8C428.7 437 471.3 425 514.2 430C557 435 600 457 642.8 468C685.7 479 728.3 479 771.2 468.3C814 457.7 857 436.3 878.5 425.7L900 415L900 601L878.5 601C857 601 814 601 771.2 601C728.3 601 685.7 601 642.8 601C600 601 557 601 514.2 601C471.3 601 428.7 601 385.8 601C343 601 300 601 257.2 601C214.3 601 171.7 601 128.8 601C86 601 43 601 21.5 601L0 601Z" fill="#762849"></path><path d="M0 488L21.5 483.2C43 478.3 86 468.7 128.8 464.2C171.7 459.7 214.3 460.3 257.2 466.3C300 472.3 343 483.7 385.8 480.8C428.7 478 471.3 461 514.2 455.8C557 450.7 600 457.3 642.8 468.2C685.7 479 728.3 494 771.2 493C814 492 857 475 878.5 466.5L900 458L900 601L878.5 601C857 601 814 601 771.2 601C728.3 601 685.7 601 642.8 601C600 601 557 601 514.2 601C471.3 601 428.7 601 385.8 601C343 601 300 601 257.2 601C214.3 601 171.7 601 128.8 601C86 601 43 601 21.5 601L0 601Z" fill="#a1635d"></path><path d="M0 544L21.5 538C43 532 86 520 128.8 512C171.7 504 214.3 500 257.2 496.8C300 493.7 343 491.3 385.8 492.5C428.7 493.7 471.3 498.3 514.2 501.2C557 504 600 505 642.8 504C685.7 503 728.3 500 771.2 503C814 506 857 515 878.5 519.5L900 524L900 601L878.5 601C857 601 814 601 771.2 601C728.3 601 685.7 601 642.8 601C600 601 557 601 514.2 601C471.3 601 428.7 601 385.8 601C343 601 300 601 257.2 601C214.3 601 171.7 601 128.8 601C86 601 43 601 21.5 601L0 601Z" fill="#c09f89"></path><path d="M0 548L21.5 550.3C43 552.7 86 557.3 128.8 555.5C171.7 553.7 214.3 545.3 257.2 543.8C300 542.3 343 547.7 385.8 552.2C428.7 556.7 471.3 560.3 514.2 560.2C557 560 600 556 642.8 557.8C685.7 559.7 728.3 567.3 771.2 570.2C814 573 857 571 878.5 570L900 569L900 601L878.5 601C857 601 814 601 771.2 601C728.3 601 685.7 601 642.8 601C600 601 557 601 514.2 601C471.3 601 428.7 601 385.8 601C343 601 300 601 257.2 601C214.3 601 171.7 601 128.8 601C86 601 43 601 21.5 601L0 601Z" fill="#e1daca"></path></svg>